<?xml version="1.0" encoding="UTF-8"?>
<svg version="1.1" xmlns="http://www.w3.org/2000/svg" width="96" height="96">
<path d="M0 0 C2 0.25 2 0.25 4 1 C4.495 2.485 4.495 2.485 5 4 C5.61488281 4.01417969 6.22976562 4.02835938 6.86328125 4.04296875 C9.33190911 4.18864535 11.59893021 4.39973255 14 5 C15.8125 7.4375 15.8125 7.4375 17 10 C18.3153341 10.70151152 19.65117592 11.36525925 21 12 C25.46478089 15.72065074 26.81312172 18.49720068 28 24 C28.99 24 29.98 24 31 24 C31.58385388 27.57610498 32.00460491 30.87106255 31.875 34.5 C32.02665108 38.7462303 33.14520092 41.21311855 35 45 C34.13375 45.928125 34.13375 45.928125 33.25 46.875 C30.29652354 50.97705064 28.77519313 55.29793885 27 60 C26.44609026 61.31614836 25.88470652 62.62920256 25.3125 63.9375 C23.96799289 66.9576122 23.96799289 66.9576122 23 70 C21.35965807 70.72904086 19.68698082 71.38655243 18 72 C14.38161922 73.89534232 12.28523429 75.6265589 10 79 C9.34 79.66 8.68 80.32 8 81 C6.65835921 80.7018576 5.32676508 80.35858516 4 80 C-1.33658748 79.65372147 -1.33658748 79.65372147 -6 82 C-8.625 81.75 -8.625 81.75 -11 81 C-11.33 80.34 -11.66 79.68 -12 79 C-14.52733235 78.34444881 -14.52733235 78.34444881 -17 78 C-17 77.34 -17 76.68 -17 76 C-20.3 76 -23.6 76 -27 76 C-29 72 -29 72 -29.75 69.6875 C-31.91655682 65.02940284 -34.92144529 60.78523178 -39.8125 58.9375 C-40.534375 58.628125 -41.25625 58.31875 -42 58 C-43.03281932 54.75399642 -43.08256143 52.47472824 -42.5 49.125 C-41.86004444 45.12527775 -42.32348413 41.99144365 -43 38 C-43.33 37.67 -43.66 37.34 -44 37 C-44.29356154 33.37940768 -43.85064319 31.12296038 -42 28 C-41.34 28 -40.68 28 -40 28 C-39.67386719 27.40832031 -39.34773438 26.81664063 -39.01171875 26.20703125 C-38.57472656 25.41683594 -38.13773438 24.62664063 -37.6875 23.8125 C-37.23246094 22.9875 -36.77742188 22.1625 -36.30859375 21.3125 C-35.34637478 19.6121011 -34.31612051 17.94975649 -33.25 16.3125 C-31.76127535 13.5583594 -31.35950006 11.09170049 -31 8 C-30.01 7.67 -29.02 7.34 -28 7 C-27.67 6.01 -27.34 5.02 -27 4 C-22.47945205 2.74429224 -22.47945205 2.74429224 -20.125 4 C-16.94394363 5.49696771 -14.36558388 4.64722767 -11 4 C-11 3.34 -11 2.68 -11 2 C-10.28972656 1.93941406 -9.57945313 1.87882813 -8.84765625 1.81640625 C-7.92855469 1.73261719 -7.00945313 1.64882812 -6.0625 1.5625 C-5.14597656 1.48128906 -4.22945312 1.40007813 -3.28515625 1.31640625 C-1.03840268 1.23955024 -1.03840268 1.23955024 0 0 Z M-13 7 C-13 7.33 -13 7.66 -13 8 C-10.03 8 -7.06 8 -4 8 C-4 7.67 -4 7.34 -4 7 C-6.97 7 -9.94 7 -13 7 Z M-14 8 C-14.33 8.66 -14.66 9.32 -15 10 C-12.69 10 -10.38 10 -8 10 C-8 9.67 -8 9.34 -8 9 C-10.97 8.505 -10.97 8.505 -14 8 Z M7 10 C7.99 11.485 7.99 11.485 9 13 C9 12.01 9 11.02 9 10 C8.34 10 7.68 10 7 10 Z M-17 12 C-16.67 12.66 -16.34 13.32 -16 14 C-14.35 13.67 -12.7 13.34 -11 13 C-11 12.67 -11 12.34 -11 12 C-12.98 12 -14.96 12 -17 12 Z M5 12 C5 12.66 5 13.32 5 14 C4.01 14.495 4.01 14.495 3 15 C4.32 15.33 5.64 15.66 7 16 C6.34 14.68 5.68 13.36 5 12 Z M10 12 C9.67 12.66 9.34 13.32 9 14 C9.66 14.66 10.32 15.32 11 16 C10.67 14.68 10.34 13.36 10 12 Z M13 12 C13.33 13.65 13.66 15.3 14 17 C14.33 15.68 14.66 14.36 15 13 C14.34 12.67 13.68 12.34 13 12 Z M-9 14 C-8 16 -8 16 -8 16 Z M-29.76171875 16.64453125 C-30.71498047 17.71767578 -30.71498047 17.71767578 -31.6875 18.8125 C-32.33074219 19.52019531 -32.97398438 20.22789063 -33.63671875 20.95703125 C-34.31154297 21.96830078 -34.31154297 21.96830078 -35 23 C-34.67 23.99 -34.34 24.98 -34 26 C-33.30519531 25.70351563 -32.61039063 25.40703125 -31.89453125 25.1015625 C-28.85340716 23.94421163 -25.84912937 23.13934996 -22.6875 22.375 C-21.61886719 22.11460938 -20.55023438 21.85421875 -19.44921875 21.5859375 C-18.64097656 21.39257812 -17.83273438 21.19921875 -17 21 C-17 20.01 -17 19.02 -17 18 C-17.7425 17.87625 -18.485 17.7525 -19.25 17.625 C-21.81075381 17.0430105 -23.68814698 16.19578604 -26 15 C-28.15800079 14.77254133 -28.15800079 14.77254133 -29.76171875 16.64453125 Z M-6 15 C-5 17 -5 17 -5 17 Z M-15 18 C-14 20 -14 20 -14 20 Z M2 17 C-1.09926819 17.32198966 -1.09926819 17.32198966 -4 18 C-4 18.33 -4 18.66 -4 19 C-1.36 19 1.28 19 4 19 C3.34 18.34 2.68 17.68 2 17 Z M-6 21 C-5 23 -5 23 -5 23 Z M-4 21 C-4 21.33 -4 21.66 -4 22 C-1.69 22 0.62 22 3 22 C3 21.67 3 21.34 3 21 C0.69 21 -1.62 21 -4 21 Z M18 21 C17.67 21.66 17.34 22.32 17 23 C17.66 23 18.32 23 19 23 C18.67 22.34 18.34 21.68 18 21 Z M-18 23 C-18.33 23.66 -18.66 24.32 -19 25 C-17.68 24.34 -16.36 23.68 -15 23 C-15.99 23 -16.98 23 -18 23 Z M24 24 C25 26 25 26 25 26 Z M-36 25 C-35 27 -35 27 -35 27 Z M-14 24 C-14.66 24.66 -15.32 25.32 -16 26 C-16 26.99 -16 27.98 -16 29 C-16.99 29.66 -17.98 30.32 -19 31 C-12.63808524 32.44484932 -12.63808524 32.44484932 -6.75 30.5 C-5.88375 29.7575 -5.88375 29.7575 -5 29 C-5.33 27.68 -5.66 26.36 -6 25 C-8.31 25.33 -10.62 25.66 -13 26 C-13.33 25.34 -13.66 24.68 -14 24 Z M3 26 C2.34 26.66 1.68 27.32 1 28 C1.28142295 32.78419016 3.7870902 36.8520807 6 41 C9.54719623 37.29857784 9.68134851 33.93909814 10 29 C9.67 28.34 9.34 27.68 9 27 C6.06991681 26.16442277 6.06991681 26.16442277 3 26 Z M10 26 C11 29 11 29 11 29 Z M-37 27 C-37.33 28.32 -37.66 29.64 -38 31 C-37.01 30.67 -36.02 30.34 -35 30 C-35.66 29.01 -36.32 28.02 -37 27 Z M-21 24 C-21.66 24.66 -22.32 25.32 -23 26 C-22.67 26.33 -22.34 26.66 -22 27 C-23.98 27 -25.96 27 -28 27 C-28 27.99 -28 28.98 -28 30 C-25.36 30.33 -22.72 30.66 -20 31 C-19.67 29.02 -19.34 27.04 -19 25 C-19.66 24.67 -20.32 24.34 -21 24 Z M16 27 C16.33 30.3 16.66 33.6 17 37 C17.99 37 18.98 37 20 37 C20.66 35.68 21.32 34.36 22 33 C20.35830472 30.97945196 18.69088222 28.97956942 17 27 C16.67 27 16.34 27 16 27 Z M21 27 C22 29 22 29 22 29 Z M23 28 C23 28.99 23 29.98 23 31 C23.66 31.33 24.32 31.66 25 32 C24.67 30.68 24.34 29.36 24 28 C23.67 28 23.34 28 23 28 Z M13 29 C12.67 31.31 12.34 33.62 12 36 C14.30671915 33.28450846 14.30671915 33.28450846 13.625 30.8125 C13.41875 30.214375 13.2125 29.61625 13 29 Z M-33 33 C-27.39 33 -21.78 33 -16 33 C-16 32.67 -16 32.34 -16 32 C-18.08185451 31.77737394 -20.16560426 31.57242074 -22.25 31.375 C-23.41015625 31.25898437 -24.5703125 31.14296875 -25.765625 31.0234375 C-29.26317161 30.7535166 -29.26317161 30.7535166 -33 33 Z M-4 33 C-4.66 34.32 -5.32 35.64 -6 37 C-2.535 38.485 -2.535 38.485 1 40 C1.33 39.01 1.66 38.02 2 37 C0.83333333 34.75 0.83333333 34.75 -1 33 C-1.99 33 -2.98 33 -4 33 Z M-8 34 C-8 34.66 -8 35.32 -8 36 C-7.34 35.67 -6.68 35.34 -6 35 C-6.66 34.67 -7.32 34.34 -8 34 Z M14 34 C14 35.98 14 37.96 14 40 C14.33 40 14.66 40 15 40 C15 38.02 15 36.04 15 34 C14.67 34 14.34 34 14 34 Z M26 34 C27 36 27 36 27 36 Z M-33 35 C-33.33 35.66 -33.66 36.32 -34 37 C-36.0625 37.625 -36.0625 37.625 -38 38 C-37.88490339 39.41750563 -37.75746342 40.83401169 -37.625 42.25 C-37.55539063 43.03890625 -37.48578125 43.8278125 -37.4140625 44.640625 C-37.11195587 47.02729958 -37.11195587 47.02729958 -35.94921875 49.08984375 C-35 51 -35 51 -35.1875 54.3125 C-34.93306318 59.3164241 -33.12808782 61.16809242 -30 65 C-29.34 64.67 -28.68 64.34 -28 64 C-27.34 64.66 -26.68 65.32 -26 66 C-25.69707031 64.96101563 -25.39414062 63.92203125 -25.08203125 62.8515625 C-22.88069309 55.47185526 -20.63676537 48.5619508 -16.8203125 41.8203125 C-16.41425781 40.91925781 -16.41425781 40.91925781 -16 40 C-16.33 39.34 -16.66 38.68 -17 38 C-16.01 38 -15.02 38 -14 38 C-14 37.34 -14 36.68 -14 36 C-18.35332736 35.15976812 -22.44442519 34.89229005 -26.875 34.9375 C-28.02742188 34.94652344 -29.17984375 34.95554688 -30.3671875 34.96484375 C-31.23601563 34.97644531 -32.10484375 34.98804688 -33 35 Z M28 35 C27.67 35.66 27.34 36.32 27 37 C27.66 37.66 28.32 38.32 29 39 C28.67 37.68 28.34 36.36 28 35 Z M11 36 C12 39 12 39 12 39 Z M23 36 C22.2884375 36.99 22.2884375 36.99 21.5625 38 C21.046875 38.66 20.53125 39.32 20 40 C19.34 40 18.68 40 18 40 C16.83593698 48.30027547 16.36393585 53.83517359 21 61 C24.02851467 60.32104388 24.02851467 60.32104388 25.203125 58.28515625 C28.04460436 52.25231389 28.62085347 47.50608317 27 41 C25.68772566 37.96534298 25.68772566 37.96534298 24 36 C23.67 36 23.34 36 23 36 Z M-39 39 C-39 41.97 -39 44.94 -39 48 C-38.67 48 -38.34 48 -38 48 C-38 45.03 -38 42.06 -38 39 C-38.33 39 -38.66 39 -39 39 Z M2 39 C3 41 3 41 3 41 Z M10 39 C11 41 11 41 11 41 Z M-14 41 C-19.2837489 49.40747466 -22.72769967 54.97934194 -21 65 C-16.59734688 64.59975881 -14.10173467 62.82216334 -10.74609375 60.15625 C-9 59 -9 59 -6.9921875 58.50390625 C-3.34086675 57.58033688 -0.98093651 55.12920818 1 52 C1.53410139 49.02027644 1.25606909 46.75485684 0 44 C-3.3378755 41.43837461 -5.06740161 40.89239249 -9.25 41.375 C-10.61125 41.684375 -10.61125 41.684375 -12 42 C-12.66 41.67 -13.32 41.34 -14 41 Z M9 41 C10 43 10 43 10 43 Z M1 43 C2 46 2 46 2 46 Z M14 43 C13.67 45.31 13.34 47.62 13 50 C13.99 50.495 13.99 50.495 15 51 C15 48.36 15 45.72 15 43 C14.67 43 14.34 43 14 43 Z M10 45 C11 47 11 47 11 47 Z M2 46 C3 49 3 49 3 49 Z M8 48 C8.33 54.27 8.66 60.54 9 67 C12.34180008 63.52253053 12.34180008 63.52253053 11.6875 60.75 C11.460625 59.8425 11.23375 58.935 11 58 C11.01883294 56.60367191 11.06193353 55.20753026 11.125 53.8125 C11.08375 52.554375 11.0425 51.29625 11 50 C10.01 49.34 9.02 48.68 8 48 Z M5 49 C-0.71234222 54.54228879 -0.71234222 54.54228879 -3.203125 61.75 C-2.86008057 64.3539263 -2.86008057 64.3539263 -2.20703125 66.7734375 C-2 69 -2 69 -3.44921875 71.2890625 C-4.21685547 72.13597656 -4.21685547 72.13597656 -5 73 C-4.34 73.66 -3.68 74.32 -3 75 C-3 74.34 -3 73.68 -3 73 C0.75 71.875 0.75 71.875 3 73 C3.33 71.68 3.66 70.36 4 69 C4.66 69.33 5.32 69.66 6 70 C7.15795477 66.52613568 7.16829849 63.72230696 7.1875 60.0625 C7.20876953 58.22365234 7.20876953 58.22365234 7.23046875 56.34765625 C7.01676797 53.24356188 6.63998182 51.58637449 5 49 Z M12 53 C11.30840599 54.84725052 11.30840599 54.84725052 11 57 C11.99 58.485 11.99 58.485 13 60 C13.69159401 58.15274948 13.69159401 58.15274948 14 56 C13.34 55.01 12.68 54.02 12 53 Z M16 58 C14.9673198 60.78823655 14.95490707 61.8677274 15.9375 64.75 C16.288125 65.4925 16.63875 66.235 17 67 C18.23396041 65.2857711 18.23396041 65.2857711 19 63 C18.21297649 60.2806707 18.21297649 60.2806707 17 58 C16.67 58 16.34 58 16 58 Z M-23 61 C-23 62.65 -23 64.3 -23 66 C-22.67 66 -22.34 66 -22 66 C-22 64.35 -22 62.7 -22 61 C-22.33 61 -22.66 61 -23 61 Z M14 62 C13.34 63.98 12.68 65.96 12 68 C13.32 67.34 14.64 66.68 16 66 C15.34 64.68 14.68 63.36 14 62 Z M-8 65 C-7 68 -7 68 -7 68 Z M-11 67 C-13.69433317 68.87197454 -13.69433317 68.87197454 -16 71 C-13.525 71.99 -13.525 71.99 -11 73 C-10.67 72.01 -10.34 71.02 -10 70 C-9.34 69.34 -8.68 68.68 -8 68 C-8.99 67.67 -9.98 67.34 -11 67 Z M11 68 C10.67 68.99 10.34 69.98 10 71 C10.66 71 11.32 71 12 71 C11.67 70.01 11.34 69.02 11 68 Z M-20 70 C-19 72 -19 72 -19 72 Z M-2 77 C2 78 2 78 2 78 Z " fill="#F3F3F3" transform="translate(53,7)"/>
<path d="M0 0 C3.3994607 1.45691173 5.66372389 3.1185928 8 6 C9.25 9.75 9.25 9.75 10 13 C10.99 13 11.98 13 13 13 C13.58385388 16.57610498 14.00460491 19.87106255 13.875 23.5 C14.02665108 27.7462303 15.14520092 30.21311855 17 34 C16.13375 34.928125 16.13375 34.928125 15.25 35.875 C12.29672771 39.97676707 10.7742281 44.29793048 9 49 C8.02326588 51.34416188 7.01260024 53.67101946 6 56 C4.68 56 3.36 56 2 56 C0.35173889 53.03312999 -0.44271087 50.34373475 -1 47 C-0.01 47 0.98 47 2 47 C2.33 47.66 2.66 48.32 3 49 C3.66 49 4.32 49 5 49 C8.25421965 43.2178243 9.42967185 38.87433179 8.65234375 32.26171875 C7.90239996 29.66161424 6.73464468 28.0543082 5 26 C2.60926555 29.82517513 2.44033448 33.59665524 2 38 C1.34 38 0.68 38 0 38 C0.020625 38.94875 0.04125 39.8975 0.0625 40.875 C0 44 0 44 -1 46 C-2.65 45.67 -4.3 45.34 -6 45 C-6.33 46.32 -6.66 47.64 -7 49 C-8.4783226 46.04335481 -8.06032783 43.25770263 -8 40 C-6.35 40 -4.7 40 -3 40 C-3.34227572 37.02934491 -3.34227572 37.02934491 -4 34 C-4.66 33.67 -5.32 33.34 -6 33 C-7.46672301 28.72205788 -6.46976088 26.14991307 -5 22 C-4.58129447 19.33071879 -4.58129447 19.33071879 -5 17 C-5.99 16.34 -6.98 15.68 -8 15 C-8.33 15.99 -8.66 16.98 -9 18 C-9 17.34 -9 16.68 -9 16 C-10.03125 15.87625 -11.0625 15.7525 -12.125 15.625 C-15.70528499 15.04753468 -18.7132025 14.52874302 -22 13 C-23.64407322 10.28370512 -24.13421594 8.82766494 -23.625 5.6875 C-23.41875 5.130625 -23.2125 4.57375 -23 4 C-21.906875 4.185625 -20.81375 4.37125 -19.6875 4.5625 C-16.06375867 5.2578068 -16.06375867 5.2578068 -13 4 C-12.443125 4.350625 -11.88625 4.70125 -11.3125 5.0625 C-7.60000782 6.5675644 -4.76929298 5.13078789 -1 4 C-0.01 5.32 0.98 6.64 2 8 C2.99 7.67 3.98 7.34 5 7 C2.525 3.535 2.525 3.535 0 0 Z M-16 6 C-19.09926819 6.32198966 -19.09926819 6.32198966 -22 7 C-22 7.33 -22 7.66 -22 8 C-19.36 8 -16.72 8 -14 8 C-14.66 7.34 -15.32 6.68 -16 6 Z M0 9 C-0.33 9.99 -0.66 10.98 -1 12 C-0.34 12 0.32 12 1 12 C1.33 11.01 1.66 10.02 2 9 C1.34 9 0.68 9 0 9 Z M-22 10 C-22 10.33 -22 10.66 -22 11 C-19.69 11 -17.38 11 -15 11 C-15 10.67 -15 10.34 -15 10 C-17.31 10 -19.62 10 -22 10 Z M6 13 C7 15 7 15 7 15 Z M-2 16 C-1.67 19.3 -1.34 22.6 -1 26 C-0.01 26 0.98 26 2 26 C2.66 24.68 3.32 23.36 4 22 C2.35830472 19.97945196 0.69088222 17.97956942 -1 16 C-1.33 16 -1.66 16 -2 16 Z M3 16 C4 18 4 18 4 18 Z M5 17 C5 17.99 5 18.98 5 20 C5.66 20.33 6.32 20.66 7 21 C6.67 19.68 6.34 18.36 6 17 C5.67 17 5.34 17 5 17 Z M-4 23 C-4 24.98 -4 26.96 -4 29 C-3.67 29 -3.34 29 -3 29 C-3 27.02 -3 25.04 -3 23 C-3.33 23 -3.66 23 -4 23 Z M8 23 C9 25 9 25 9 25 Z M10 24 C9.67 24.66 9.34 25.32 9 26 C9.66 26.66 10.32 27.32 11 28 C10.67 26.68 10.34 25.36 10 24 Z " fill="#F5F5F5" transform="translate(71,18)"/>
<path d="M0 0 C3.3721049 1.44518781 5.69880363 3.12350453 8 6 C8.4375 8.5625 8.4375 8.5625 8 11 C6.625 12.8125 6.625 12.8125 5 14 C4.34 14 3.68 14 3 14 C2.01 14.495 2.01 14.495 1 15 C1 15.66 1 16.32 1 17 C0.01 16.67 -0.98 16.34 -2 16 C-2.66 16.66 -3.32 17.32 -4 18 C-5.32 17.01 -6.64 16.02 -8 15 C-8.33 15.99 -8.66 16.98 -9 18 C-9 17.34 -9 16.68 -9 16 C-10.03125 15.87625 -11.0625 15.7525 -12.125 15.625 C-15.70528499 15.04753468 -18.7132025 14.52874302 -22 13 C-23.64407322 10.28370512 -24.13421594 8.82766494 -23.625 5.6875 C-23.41875 5.130625 -23.2125 4.57375 -23 4 C-21.906875 4.185625 -20.81375 4.37125 -19.6875 4.5625 C-16.06375867 5.2578068 -16.06375867 5.2578068 -13 4 C-12.443125 4.350625 -11.88625 4.70125 -11.3125 5.0625 C-7.60000782 6.5675644 -4.76929298 5.13078789 -1 4 C-0.01 5.32 0.98 6.64 2 8 C2.99 7.67 3.98 7.34 5 7 C2.525 3.535 2.525 3.535 0 0 Z M-16 6 C-19.09926819 6.32198966 -19.09926819 6.32198966 -22 7 C-22 7.33 -22 7.66 -22 8 C-19.36 8 -16.72 8 -14 8 C-14.66 7.34 -15.32 6.68 -16 6 Z M0 9 C-0.33 9.99 -0.66 10.98 -1 12 C-0.34 12 0.32 12 1 12 C1.33 11.01 1.66 10.02 2 9 C1.34 9 0.68 9 0 9 Z M-22 10 C-22 10.33 -22 10.66 -22 11 C-19.69 11 -17.38 11 -15 11 C-15 10.67 -15 10.34 -15 10 C-17.31 10 -19.62 10 -22 10 Z " fill="#FAFAFA" transform="translate(71,18)"/>
<path d="M0 0 C2.0625 0.4375 2.0625 0.4375 4 1 C2.37660195 2.70884005 0.70680947 4.37446717 -1 6 C-1.66 6 -2.32 6 -3 6 C-3.33 6.66 -3.66 7.32 -4 8 C-4.62648438 7.97679687 -5.25296875 7.95359375 -5.8984375 7.9296875 C-6.71570312 7.91164063 -7.53296875 7.89359375 -8.375 7.875 C-9.59316406 7.84019531 -9.59316406 7.84019531 -10.8359375 7.8046875 C-13.21342243 7.78629949 -13.21342243 7.78629949 -15 10 C-18.125 10.125 -18.125 10.125 -21 10 C-21 8.35 -21 6.7 -21 5 C-17.7 4.67 -14.4 4.34 -11 4 C-11 3.34 -11 2.68 -11 2 C-10.28972656 1.93941406 -9.57945313 1.87882813 -8.84765625 1.81640625 C-7.46900391 1.69072266 -7.46900391 1.69072266 -6.0625 1.5625 C-5.14597656 1.48128906 -4.22945312 1.40007813 -3.28515625 1.31640625 C-1.03840268 1.23955024 -1.03840268 1.23955024 0 0 Z " fill="#EEEEEE" transform="translate(53,7)"/>
<path d="M0 0 C2.71369243 2.5327796 4.39355503 4.68670725 6 8 C7.3050581 9.68889872 8.63360658 11.3603279 10 13 C9.34 13 8.68 13 8 13 C7.67 13.66 7.34 14.32 7 15 C6.01 13.35 5.02 11.7 4 10 C3.01 10.495 3.01 10.495 2 11 C1.67 10.34 1.34 9.68 1 9 C0.67 9.99 0.34 10.98 0 12 C-1.65 12.33 -3.3 12.66 -5 13 C-5.33 11.68 -5.66 10.36 -6 9 C-5.01 8.67 -4.02 8.34 -3 8 C-3.350625 7.38125 -3.70125 6.7625 -4.0625 6.125 C-4.371875 5.42375 -4.68125 4.7225 -5 4 C-4.67 3.34 -4.34 2.68 -4 2 C-2.68 2 -1.36 2 0 2 C0 1.34 0 0.68 0 0 Z M5 15 C7 16 7 16 7 16 Z " fill="#EFEFEF" transform="translate(66,12)"/>
<path d="M0 0 C0.66 0.33 1.32 0.66 2 1 C1.67 1.928125 1.34 2.85625 1 3.8125 C-0.14967004 6.92029291 -0.14967004 6.92029291 0 10 C-1.98 10.33 -3.96 10.66 -6 11 C-6.33 11.99 -6.66 12.98 -7 14 C-7.33 13.01 -7.66 12.02 -8 11 C-8.99 11 -9.98 11 -11 11 C-11.33 10.01 -11.66 9.02 -12 8 C-8.98015857 5.39958099 -6.84592281 3.89738199 -3 3 C-1.26973898 1.52109931 -1.26973898 1.52109931 0 0 Z " fill="#EBEBEB" transform="translate(51,61)"/>
<path d="M0 0 C1.2065625 0.0309375 1.2065625 0.0309375 2.4375 0.0625 C2.65995393 1.66476955 2.86496669 3.26946767 3.0625 4.875 C3.17851562 5.76832031 3.29453125 6.66164063 3.4140625 7.58203125 C3.4375 10.0625 3.4375 10.0625 1.4375 13.0625 C1.4375 12.0725 1.4375 11.0825 1.4375 10.0625 C-0.2125 9.7325 -1.8625 9.4025 -3.5625 9.0625 C-3.66015625 2.91015625 -3.66015625 2.91015625 -3.5625 1.0625 C-2.5625 0.0625 -2.5625 0.0625 0 0 Z " fill="#F6F6F6" transform="translate(25.5625,51.9375)"/>
<path d="M0 0 C0.66 0 1.32 0 2 0 C3.25 6.625 3.25 6.625 1 10 C-1 10 -1 10 -2.625 8.5 C-3.07875 8.005 -3.5325 7.51 -4 7 C-3.34 5.35 -2.68 3.7 -2 2 C-1.34 2 -0.68 2 0 2 C0 1.34 0 0.68 0 0 Z " fill="#FAFAFA" transform="translate(82,31)"/>
<path d="M0 0 C0.66 0.33 1.32 0.66 2 1 C1.34 1.66 0.68 2.32 0 3 C-0.39764263 4.98821313 -0.73775349 6.98944339 -1 9 C-3.64 9 -6.28 9 -9 9 C-7.68 8.67 -6.36 8.34 -5 8 C-5.103125 7.236875 -5.20625 6.47375 -5.3125 5.6875 C-5.209375 4.800625 -5.10625 3.91375 -5 3 C-2.625 1.125 -2.625 1.125 0 0 Z " fill="#F5F5F5" transform="translate(38,30)"/>
<path d="M0 0 C4.75 0.875 4.75 0.875 7 2 C6.34 3.65 5.68 5.3 5 7 C2.28368454 6.09456151 -0.34771188 5.07525194 -3 4 C-2.67 3.34 -2.34 2.68 -2 2 C-1.34 2 -0.68 2 0 2 C0 1.34 0 0.68 0 0 Z " fill="#FAFAFA" transform="translate(46,44)"/>
<path d="M0 0 C0.99 0.99 1.98 1.98 3 3 C2.01 6.3 1.02 9.6 0 13 C-0.99 13 -1.98 13 -3 13 C-2.01 8.71 -1.02 4.42 0 0 Z " fill="#E2E2E2" transform="translate(64,33)"/>
<path d="M0 0 C0.66 0 1.32 0 2 0 C2.33 1.32 2.66 2.64 3 4 C2.01 4 1.02 4 0 4 C-0.33 3.01 -0.66 2.02 -1 1 C-0.67 0.67 -0.34 0.34 0 0 Z M-4 1 C-3.67 1.66 -3.34 2.32 -3 3 C-0.98330173 4.13350534 -0.98330173 4.13350534 1 5 C1 5.66 1 6.32 1 7 C-1.875 6.6875 -1.875 6.6875 -5 6 C-5.66 5.01 -6.32 4.02 -7 3 C-6.01 3 -5.02 3 -4 3 C-4 2.34 -4 1.68 -4 1 Z " fill="#E7E7E7" transform="translate(78,29)"/>
<path d="M0 0 C0.66 1.32 1.32 2.64 2 4 C3.00435972 5.28016835 4.04690261 6.53128122 5.125 7.75 C5.66382812 8.36359375 6.20265625 8.9771875 6.7578125 9.609375 C7.16773437 10.06828125 7.57765625 10.5271875 8 11 C7.34 11 6.68 11 6 11 C5.67 11.66 5.34 12.32 5 13 C4.01 11.35 3.02 9.7 2 8 C1.01 8.495 1.01 8.495 0 9 C0 6.03 0 3.06 0 0 Z M3 13 C5 14 5 14 5 14 Z " fill="#E3E3E3" transform="translate(68,14)"/>
<path d="M0 0 C0.9075 0.350625 1.815 0.70125 2.75 1.0625 C5.98006474 1.99424944 6.95065605 1.98014627 10 1 C10.66 1.33 11.32 1.66 12 2 C10.2984375 2.4021875 10.2984375 2.4021875 8.5625 2.8125 C7.386875 3.204375 6.21125 3.59625 5 4 C4.67 4.99 4.34 5.98 4 7 C3.67 6.01 3.34 5.02 3 4 C2.01 4 1.02 4 0 4 C-0.33 3.01 -0.66 2.02 -1 1 C-0.67 0.67 -0.34 0.34 0 0 Z " fill="#DAD9DA" transform="translate(40,68)"/>
<path d="M0 0 C1.98 0.495 1.98 0.495 4 1 C4.33 2.98 4.66 4.96 5 7 C3.35 7 1.7 7 0 7 C-1.04449911 3.86650268 -0.93423645 3.01031744 0 0 Z " fill="#EBEBEB" transform="translate(48,52)"/>
<path d="M0 0 C1.65 0.33 3.3 0.66 5 1 C5 2.65 5 4.3 5 6 C4.01 6.495 4.01 6.495 3 7 C3 6.34 3 5.68 3 5 C1.68 4.67 0.36 4.34 -1 4 C-0.67 2.68 -0.34 1.36 0 0 Z " fill="#ECECEC" transform="translate(47,71)"/>
<path d="M0 0 C3.37462715 0.54723683 5.08235 1.0549 8 3 C6 5 6 5 2.875 5.125 C1.451875 5.063125 1.451875 5.063125 0 5 C0 3.35 0 1.7 0 0 Z " fill="#D8D8D8" transform="translate(32,12)"/>
<path d="M0 0 C0.66 1.32 1.32 2.64 2 4 C1.34 4 0.68 4 0 4 C0.33 5.98 0.66 7.96 1 10 C0.01 10.495 0.01 10.495 -1 11 C-1.22174933 9.54364629 -1.42698698 8.08477044 -1.625 6.625 C-1.74101563 5.81289063 -1.85703125 5.00078125 -1.9765625 4.1640625 C-1.98429687 3.44992188 -1.99203125 2.73578125 -2 2 C-1.34 1.34 -0.68 0.68 0 0 Z " fill="#EAEAEA" transform="translate(54,46)"/>
<path d="M0 0 C3.0916909 2.52956528 3.90931332 5.22454612 5 9 C4.01 9 3.02 9 2 9 C0.14223235 5.86501708 -0.20140476 3.62528568 0 0 Z " fill="#EAEAEA" transform="translate(54,39)"/>
<path d="M0 0 C0.99 0 1.98 0 3 0 C3.3125 3.3125 3.3125 3.3125 3 7 C0.5 8.9375 0.5 8.9375 -2 10 C-1.34 6.7 -0.68 3.4 0 0 Z " fill="#E6E6E6" transform="translate(22,15)"/>
<path d="M0 0 C3 1 3 1 4 3 C3.34 3 2.68 3 2 3 C2.33 4.32 2.66 5.64 3 7 C1.35 6.67 -0.3 6.34 -2 6 C-1.125 1.125 -1.125 1.125 0 0 Z " fill="#E6E6E6" transform="translate(38,79)"/>
<path d="M0 0 C0.66 0.33 1.32 0.66 2 1 C0.52307692 5.67692308 0.52307692 5.67692308 -2.125 7.3125 C-3.053125 7.6528125 -3.053125 7.6528125 -4 8 C-2.87548273 5.0280615 -1.77706209 2.66559313 0 0 Z " fill="#ECECEC" transform="translate(37,47)"/>
<path d="M0 0 C0.66 0.66 1.32 1.32 2 2 C1.67028521 5.29714793 1.3773161 6.6226839 -1 9 C-2.0326802 6.21176345 -2.04509293 5.1322726 -1.0625 2.25 C-0.711875 1.5075 -0.36125 0.765 0 0 Z " fill="#E6E6E6" transform="translate(80,58)"/>
<path d="M0 0 C0.99 0.33 1.98 0.66 3 1 C3.6875 3.0625 3.6875 3.0625 4 5 C2.68 5.33 1.36 5.66 0 6 C0 4.02 0 2.04 0 0 Z " fill="#F4F4F4" transform="translate(74,55)"/>
<path d="M0 0 C0.99 0.33 1.98 0.66 3 1 C3 1.99 3 2.98 3 4 C1.35 4 -0.3 4 -2 4 C-2 3.01 -2 2.02 -2 1 C-1.34 0.67 -0.68 0.34 0 0 Z " fill="#F9F9F9" transform="translate(48,17)"/>
<path d="M0 0 C1.485 0.99 1.485 0.99 3 2 C2.67 3.65 2.34 5.3 2 7 C1.01 7 0.02 7 -1 7 C-0.67 4.69 -0.34 2.38 0 0 Z " fill="#EDEDED" transform="translate(28,66)"/>
<path d="M0 0 C0.33 0 0.66 0 1 0 C1 4.62 1 9.24 1 14 C0.67 14 0.34 14 0 14 C0 9.38 0 4.76 0 0 Z " fill="#F7F7F7" transform="translate(58,60)"/>
<path d="M0 0 C4.29 0 8.58 0 13 0 C13 0.33 13 0.66 13 1 C8.71 1 4.42 1 0 1 C0 0.67 0 0.34 0 0 Z " fill="#FDFDFD" transform="translate(20,43)"/>
<path d="M0 0 C1.485 0.99 1.485 0.99 3 2 C3.1875 4.625 3.1875 4.625 3 7 C2.01 7.495 2.01 7.495 1 8 C0.67 5.36 0.34 2.72 0 0 Z " fill="#F9F9F9" transform="translate(70,36)"/>
<path d="M0 0 C0.66 1.32 1.32 2.64 2 4 C1.34 4.99 0.68 5.98 0 7 C-1.125 2.25 -1.125 2.25 0 0 Z " fill="#FDFDFD" transform="translate(20,55)"/>
<path d="M0 0 C0.66 0 1.32 0 2 0 C2 1.98 2 3.96 2 6 C0 2.25 0 2.25 0 0 Z " fill="#FDFCFD" transform="translate(71,57)"/>
<path d="M0 0 C0.33 0 0.66 0 1 0 C1 2.64 1 5.28 1 8 C0.67 8 0.34 8 0 8 C0 5.36 0 2.72 0 0 Z " fill="#EBEBEB" transform="translate(9,45)"/>
<path d="M0 0 C0.33 0.66 0.66 1.32 1 2 C0.34 2.66 -0.32 3.32 -1 4 C-1 3.34 -1 2.68 -1 2 C-1.66 1.67 -2.32 1.34 -3 1 C-2.01 0.67 -1.02 0.34 0 0 Z " fill="#D8D8D8" transform="translate(77,61)"/>
<path d="M0 0 C0.66 1.32 1.32 2.64 2 4 C1.01 3.34 0.02 2.68 -1 2 C-0.67 1.34 -0.34 0.68 0 0 Z " fill="#F6F6F6" transform="translate(52,42)"/>
<path d="M0 0 C0.33 0 0.66 0 1 0 C1 1.98 1 3.96 1 6 C0.67 6 0.34 6 0 6 C0 4.02 0 2.04 0 0 Z " fill="#FDFDFD" transform="translate(85,38)"/>
<path d="M0 0 C0.33 0 0.66 0 1 0 C1 1.65 1 3.3 1 5 C0.67 5 0.34 5 0 5 C0 3.35 0 1.7 0 0 Z " fill="#FEFEFE" transform="translate(79,68)"/>
<path d="M0 0 C0.33 0 0.66 0 1 0 C1 1.65 1 3.3 1 5 C0.67 5 0.34 5 0 5 C0 3.35 0 1.7 0 0 Z " fill="#CCCCCC" transform="translate(26,65)"/>
<path d="M0 0 C0.66 1.32 1.32 2.64 2 4 C1.34 3.67 0.68 3.34 0 3 C0 2.01 0 1.02 0 0 Z " fill="#FAFAFA" transform="translate(69,66)"/>
<path d="M0 0 C0.33 0 0.66 0 1 0 C1 1.65 1 3.3 1 5 C0.67 5 0.34 5 0 5 C0 3.35 0 1.7 0 0 Z " fill="#F3F3F3" transform="translate(77,49)"/>
<path d="M0 0 C0 0.99 0 1.98 0 3 C-0.66 2.67 -1.32 2.34 -2 2 C-1.34 1.34 -0.68 0.68 0 0 Z " fill="#FEFEFE" transform="translate(76,44)"/>
<path d="M0 0 C0.33 0 0.66 0 1 0 C1 1.65 1 3.3 1 5 C0.67 5 0.34 5 0 5 C0 3.35 0 1.7 0 0 Z " fill="#FFFFFF" transform="translate(7,39)"/>
<path d="M0 0 C1 4 1 4 1 4 Z " fill="#FDFDFD" transform="translate(22,75)"/>
<path d="M0 0 C0.99 0.495 0.99 0.495 2 1 C1.67 1.66 1.34 2.32 1 3 C0.67 2.01 0.34 1.02 0 0 Z " fill="#DDDDDD" transform="translate(22,68)"/>
<path d="M0 0 C0.66 0 1.32 0 2 0 C2 0.66 2 1.32 2 2 C1.34 2 0.68 2 0 2 C0 1.34 0 0.68 0 0 Z " fill="#E6E6E6" transform="translate(74,65)"/>
<path d="M0 0 C1 4 1 4 1 4 Z " fill="#F9F8F9" transform="translate(32,64)"/>
<path d="M0 0 C0 3 0 3 0 3 Z " fill="#FFFFFF" transform="translate(55,61)"/>
<path d="M0 0 C0.33 0.99 0.66 1.98 1 3 C0.34 2.67 -0.32 2.34 -1 2 C-0.67 1.34 -0.34 0.68 0 0 Z " fill="#EDECED" transform="translate(79,55)"/>
<path d="M0 0 C1 4 1 4 1 4 Z " fill="#FEFEFE" transform="translate(10,53)"/>
<path d="M0 0 C1 4 1 4 1 4 Z " fill="#FEFEFE" transform="translate(60,40)"/>
<path d="M0 0 C1 4 1 4 1 4 Z " fill="#FCFCFC" transform="translate(61,36)"/>
<path d="M0 0 C1 4 1 4 1 4 Z " fill="#FDFDFD" transform="translate(80,25)"/>
<path d="M0 0 C4 1 4 1 4 1 Z " fill="#EEEEEE" transform="translate(38,10)"/>
<path d="M0 0 C3 1 3 1 3 1 Z " fill="#D2D2D2" transform="translate(33,83)"/>
<path d="M0 0 C0.66 0.66 1.32 1.32 2 2 C1.34 2 0.68 2 0 2 C0 1.34 0 0.68 0 0 Z " fill="#FCFBFC" transform="translate(20,73)"/>
<path d="" fill="#FCFCFC" transform="translate(0,0)"/>
<path d="" fill="#FEFEFE" transform="translate(0,0)"/>
<path d="" fill="#F8F8F8" transform="translate(0,0)"/>
<path d="" fill="#FCFCFC" transform="translate(0,0)"/>
<path d="M0 0 C0.33 0.66 0.66 1.32 1 2 C0.34 1.67 -0.32 1.34 -1 1 C-0.67 0.67 -0.34 0.34 0 0 Z " fill="#FDFDFD" transform="translate(86,55)"/>
<path d="M0 0 C0.66 0 1.32 0 2 0 C1.67 0.66 1.34 1.32 1 2 C0.67 1.34 0.34 0.68 0 0 Z " fill="#FEFEFE" transform="translate(29,55)"/>
<path d="" fill="#FBFBFB" transform="translate(0,0)"/>
<path d="" fill="#E2E2E2" transform="translate(0,0)"/>
<path d="" fill="#FCFCFC" transform="translate(0,0)"/>
<path d="" fill="#FFFFFF" transform="translate(0,0)"/>
<path d="" fill="#FFFFFF" transform="translate(0,0)"/>
<path d="M0 0 C3 1 3 1 3 1 Z " fill="#FFFFFF" transform="translate(30,27)"/>
<path d="M0 0 C3 1 3 1 3 1 Z " fill="#FCFCFC" transform="translate(33,26)"/>
<path d="M0 0 C3 1 3 1 3 1 Z " fill="#F7F7F7" transform="translate(35,11)"/>
<path d="" fill="#F9F9F9" transform="translate(0,0)"/>
<path d="" fill="#F6F6F6" transform="translate(0,0)"/>
<path d="" fill="#FBFBFB" transform="translate(0,0)"/>
<path d="" fill="#FAFAFA" transform="translate(0,0)"/>
<path d="" fill="#F9F9F9" transform="translate(0,0)"/>
<path d="" fill="#FDFDFD" transform="translate(0,0)"/>
<path d="" fill="#FDFDFD" transform="translate(0,0)"/>
<path d="" fill="#FCFCFC" transform="translate(0,0)"/>
<path d="" fill="#F8F8F8" transform="translate(0,0)"/>
<path d="" fill="#FEFEFE" transform="translate(0,0)"/>
<path d="" fill="#FCFCFC" transform="translate(0,0)"/>
<path d="" fill="#FEFEFE" transform="translate(0,0)"/>
<path d="" fill="#FCFCFC" transform="translate(0,0)"/>
<path d="" fill="#FBFAFB" transform="translate(0,0)"/>
<path d="" fill="#FDFDFD" transform="translate(0,0)"/>
<path d="" fill="#FEFEFE" transform="translate(0,0)"/>
<path d="" fill="#FFFFFF" transform="translate(0,0)"/>
<path d="" fill="#FBFBFB" transform="translate(0,0)"/>
<path d="" fill="#FEFEFE" transform="translate(0,0)"/>
<path d="" fill="#FFFFFF" transform="translate(0,0)"/>
<path d="" fill="#FBFBFB" transform="translate(0,0)"/>
<path d="" fill="#F9F9F9" transform="translate(0,0)"/>
<path d="" fill="#FCFCFC" transform="translate(0,0)"/>
<path d="M0 0 C2 1 2 1 2 1 Z " fill="#F9F9F9" transform="translate(49,43)"/>
<path d="" fill="#FEFEFE" transform="translate(0,0)"/>
<path d="" fill="#FBFBFB" transform="translate(0,0)"/>
<path d="" fill="#FCFCFC" transform="translate(0,0)"/>
<path d="M0 0 C2 1 2 1 2 1 Z " fill="#FFFFFF" transform="translate(25,35)"/>
<path d="" fill="#FCFBFC" transform="translate(0,0)"/>
<path d="M0 0 C2 1 2 1 2 1 Z " fill="#D2D2D2" transform="translate(56,34)"/>
<path d="" fill="#F9F9F9" transform="translate(0,0)"/>
<path d="" fill="#FFFFFF" transform="translate(0,0)"/>
<path d="" fill="#FEFEFE" transform="translate(0,0)"/>
<path d="" fill="#FEFEFE" transform="translate(0,0)"/>
<path d="M0 0 C2 1 2 1 2 1 Z " fill="#FCFCFC" transform="translate(28,28)"/>
<path d="" fill="#BDBDBD" transform="translate(0,0)"/>
<path d="" fill="#FEFEFE" transform="translate(0,0)"/>
<path d="" fill="#FEFEFE" transform="translate(0,0)"/>
<path d="M0 0 C2 1 2 1 2 1 Z " fill="#F9F9F9" transform="translate(25,23)"/>
<path d="" fill="#FFFFFF" transform="translate(0,0)"/>
<path d="" fill="#FFFFFF" transform="translate(0,0)"/>
<path d="" fill="#F8F8F8" transform="translate(0,0)"/>
<path d="" fill="#FFFFFF" transform="translate(0,0)"/>
<path d="" fill="#FCFBFC" transform="translate(0,0)"/>
<path d="" fill="#828282" transform="translate(0,0)"/>
<path d="" fill="#FDFDFD" transform="translate(0,0)"/>
<path d="" fill="#FFFFFF" transform="translate(0,0)"/>
<path d="" fill="#F6F6F6" transform="translate(0,0)"/>
<path d="" fill="#F7F7F7" transform="translate(0,0)"/>
<path d="" fill="#FAFAFA" transform="translate(0,0)"/>
<path d="" fill="#F9F9F9" transform="translate(0,0)"/>
<path d="" fill="#FAFAFA" transform="translate(0,0)"/>
<path d="" fill="#EFEFEF" transform="translate(0,0)"/>
<path d="" fill="#FDFDFD" transform="translate(0,0)"/>
<path d="" fill="#FFFFFF" transform="translate(0,0)"/>
<path d="" fill="#F9F9F9" transform="translate(0,0)"/>
<path d="" fill="#FAFAFA" transform="translate(0,0)"/>
<path d="" fill="#FFFFFF" transform="translate(0,0)"/>
<path d="" fill="#FFFFFF" transform="translate(0,0)"/>
<path d="" fill="#FAFAFA" transform="translate(0,0)"/>
<path d="" fill="#FAFAFA" transform="translate(0,0)"/>
<path d="" fill="#FAFAFA" transform="translate(0,0)"/>
<path d="" fill="#FAFAFA" transform="translate(0,0)"/>
<path d="" fill="#C0C0C0" transform="translate(0,0)"/>
<path d="" fill="#FEFEFE" transform="translate(0,0)"/>
<path d="" fill="#C7C7C7" transform="translate(0,0)"/>
<path d="" fill="#FFFFFF" transform="translate(0,0)"/>
<path d="" fill="#F7F7F7" transform="translate(0,0)"/>
<path d="" fill="#F5F5F5" transform="translate(0,0)"/>
<path d="" fill="#F7F7F7" transform="translate(0,0)"/>
<path d="" fill="#BEBEBE" transform="translate(0,0)"/>
<path d="" fill="#FCFBFC" transform="translate(0,0)"/>
<path d="" fill="#FFFFFF" transform="translate(0,0)"/>
<path d="" fill="#FEFEFE" transform="translate(0,0)"/>
<path d="" fill="#FEFEFE" transform="translate(0,0)"/>
<path d="" fill="#FAFAFA" transform="translate(0,0)"/>
<path d="" fill="#FFFFFF" transform="translate(0,0)"/>
<path d="" fill="#FDFDFD" transform="translate(0,0)"/>
<path d="" fill="#F8F8F8" transform="translate(0,0)"/>
<path d="" fill="#FEFEFE" transform="translate(0,0)"/>
<path d="" fill="#FFFFFF" transform="translate(0,0)"/>
<path d="" fill="#FAFAFA" transform="translate(0,0)"/>
<path d="" fill="#FAFAFA" transform="translate(0,0)"/>
<path d="" fill="#F8F8F8" transform="translate(0,0)"/>
<path d="" fill="#FCFBFC" transform="translate(0,0)"/>
<path d="" fill="#FFFFFF" transform="translate(0,0)"/>
<path d="" fill="#F8F8F8" transform="translate(0,0)"/>
<path d="" fill="#CDCDCD" transform="translate(0,0)"/>
<path d="" fill="#F9F9F9" transform="translate(0,0)"/>
<path d="" fill="#FAFAFA" transform="translate(0,0)"/>
<path d="" fill="#F6F6F6" transform="translate(0,0)"/>
<path d="" fill="#FDFDFD" transform="translate(0,0)"/>
<path d="" fill="#C0C0C0" transform="translate(0,0)"/>
<path d="" fill="#FAFAFA" transform="translate(0,0)"/>
<path d="" fill="#FDFDFD" transform="translate(0,0)"/>
<path d="" fill="#FEFEFE" transform="translate(0,0)"/>
<path d="" fill="#FFFFFF" transform="translate(0,0)"/>
<path d="" fill="#F5F5F5" transform="translate(0,0)"/>
<path d="" fill="#F6F6F6" transform="translate(0,0)"/>
<path d="" fill="#FFFFFF" transform="translate(0,0)"/>
<path d="" fill="#FEFEFE" transform="translate(0,0)"/>
<path d="" fill="#FCFBFC" transform="translate(0,0)"/>
<path d="" fill="#FAFAFA" transform="translate(0,0)"/>
<path d="" fill="#FFFFFF" transform="translate(0,0)"/>
<path d="" fill="#FAFAFA" transform="translate(0,0)"/>
<path d="" fill="#AAAAAA" transform="translate(0,0)"/>
<path d="" fill="#FEFEFE" transform="translate(0,0)"/>
<path d="" fill="#F7F7F7" transform="translate(0,0)"/>
<path d="" fill="#FEFEFE" transform="translate(0,0)"/>
<path d="" fill="#F6F6F6" transform="translate(0,0)"/>
<path d="" fill="#FDFDFD" transform="translate(0,0)"/>
<path d="" fill="#FFFFFF" transform="translate(0,0)"/>
<path d="" fill="#FEFEFE" transform="translate(0,0)"/>
<path d="" fill="#FFFFFF" transform="translate(0,0)"/>
<path d="" fill="#FDFDFD" transform="translate(0,0)"/>
<path d="" fill="#FAFAFA" transform="translate(0,0)"/>
</svg>
